<svg xmlns="http://www.w3.org/2000/svg" width="54" height="54" viewBox="0 0 54 54">
  <g id="Groupe_13" data-name="Groupe 13" transform="translate(-880 -2672.961)">
    <circle id="Ellipse_8" data-name="Ellipse 8" cx="27" cy="27" r="27" transform="translate(880 2672.961)" fill="#f5ca41"/>
    <g id="instagram_1_" data-name="instagram (1)" transform="translate(894.777 2687.802)">
      <path id="Tracé_2" data-name="Tracé 2" d="M24.571,7.112a8.839,8.839,0,0,0-.562-2.934A6.2,6.2,0,0,0,20.47.638,8.861,8.861,0,0,0,17.535.076C16.241.014,15.829,0,12.545,0S8.85.014,7.56.071A8.841,8.841,0,0,0,4.626.633a5.9,5.9,0,0,0-2.145,1.4A5.955,5.955,0,0,0,1.086,4.173,8.862,8.862,0,0,0,.524,7.107C.463,8.4.449,8.813.449,12.1s.014,3.7.071,4.985a8.838,8.838,0,0,0,.562,2.934,6.2,6.2,0,0,0,3.539,3.539,8.863,8.863,0,0,0,2.934.562c1.29.057,1.7.071,4.985.071s3.7-.014,4.985-.071a8.836,8.836,0,0,0,2.934-.562A6.187,6.187,0,0,0,24,20.017a8.868,8.868,0,0,0,.562-2.934c.057-1.29.071-1.7.071-4.985s0-3.7-.061-4.985Zm-2.178,9.876a6.63,6.63,0,0,1-.416,2.245,4.012,4.012,0,0,1-2.3,2.3,6.653,6.653,0,0,1-2.245.416c-1.276.057-1.658.071-4.886.071S8.935,22,7.664,21.944a6.627,6.627,0,0,1-2.245-.416,3.722,3.722,0,0,1-1.389-.9,3.761,3.761,0,0,1-.9-1.389,6.655,6.655,0,0,1-.416-2.245c-.057-1.276-.071-1.659-.071-4.886s.014-3.615.071-4.886a6.627,6.627,0,0,1,.416-2.245,3.677,3.677,0,0,1,.907-1.389,3.755,3.755,0,0,1,1.389-.9,6.658,6.658,0,0,1,2.245-.416C8.945,2.212,9.328,2.2,12.555,2.2s3.615.014,4.886.071a6.63,6.63,0,0,1,2.245.416,3.719,3.719,0,0,1,1.389.9,3.76,3.76,0,0,1,.9,1.389,6.657,6.657,0,0,1,.416,2.245c.057,1.276.071,1.658.071,4.886s-.014,3.605-.071,4.881Zm0,0" transform="translate(-0.449 0)"/>
      <path id="Tracé_3" data-name="Tracé 3" d="M131.163,124.5a6.214,6.214,0,1,0,6.214,6.214A6.215,6.215,0,0,0,131.163,124.5Zm0,10.245a4.031,4.031,0,1,1,4.031-4.031A4.031,4.031,0,0,1,131.163,134.745Zm0,0" transform="translate(-119.066 -118.617)"/>
      <path id="Tracé_4" data-name="Tracé 4" d="M365.351,90.052A1.451,1.451,0,1,1,363.9,88.6,1.451,1.451,0,0,1,365.351,90.052Zm0,0" transform="translate(-345.344 -84.415)"/>
    </g>
  </g>
</svg>
